<svg id="Capa_1" enable-background="new 0 0 497 497" height="512" viewBox="0 0 497 497" width="512" xmlns="http://www.w3.org/2000/svg"><g><g><g><ellipse cx="257.423" cy="368.401" fill="#df646e" rx="128.717" ry="97.489" transform="matrix(.067 -.998 .998 .067 -127.284 600.752)"/></g></g><g><g><ellipse cx="257.423" cy="368.402" fill="#e27f86" rx="76.197" ry="51.403" transform="matrix(.067 -.998 .998 .067 -127.413 600.538)"/></g></g><g><g><ellipse cx="98.561" cy="387.713" fill="#dc4955" rx="74.783" ry="95.709" transform="matrix(.986 -.17 .17 .986 -64.358 22.346)"/></g></g><g><g><path d="m172.285 375.166c-8.908-52.103-49.136-88.723-89.852-81.793-1.683.286-3.338.649-4.968 1.073 31.044 7.884 57.763 39.44 64.82 80.72 8.54 49.949-14.808 95.988-52.626 105.815 8.139 2.067 16.574 2.512 25.032 1.073 40.715-6.93 66.501-54.785 57.594-106.888z" fill="#d82f3c"/></g></g><g><g><ellipse cx="98.561" cy="387.713" fill="#df646e" rx="34.577" ry="49.682" transform="matrix(.986 -.169 .169 .986 -64.186 22.269)"/></g></g><g><g><path d="m132.648 381.912c-4.624-27.046-23.634-46.374-42.46-43.17-3.836.653-7.362 2.204-10.516 4.468 11.034 7.052 19.995 21.268 22.976 38.702 3.682 21.535-2.873 41.458-15.198 50.305 6.083 3.888 12.793 5.607 19.484 4.468 18.826-3.204 30.338-27.727 25.714-54.773z" fill="#dc4955"/></g></g><g><g><ellipse cx="196.271" cy="134.949" fill="#d82f3c" rx="89.415" ry="114.419" transform="matrix(.98 -.199 .199 .98 -22.943 41.79)"/></g></g><g><g><path d="m251.08 108.332c7.947 26.092 8.118 52.268 1.96 74.781h28.553c6.004-20.318 7.086-43.657 1.993-67.453-13.224-61.791-63.037-103.245-111.259-92.591-1.126.249-2.237.532-3.34.833 35.411 7.364 68.383 39.416 82.093 84.43z" fill="#c42430"/></g></g><g><g><ellipse cx="196.271" cy="132.876" fill="#df646e" rx="40.588" ry="58.31" transform="matrix(.979 -.203 .203 .979 -22.907 42.657)"/></g></g><g><g><path d="m235.905 124.12c-6.739-31.49-29.947-53.097-51.837-48.261-1.243.275-2.45.639-3.629 1.068 16.084 5.507 30.41 23.569 35.466 47.194 6.357 29.702-4.213 57.577-23.803 64.706 5.355 1.833 10.904 2.276 16.371 1.068 21.89-4.837 34.172-34.285 27.432-65.775z" fill="#dc4955"/></g></g><g><g><ellipse cx="369.834" cy="367.493" fill="#dc4955" rx="112.28" ry="88.579" transform="matrix(.792 -.611 .611 .792 -147.461 302.421)"/></g></g><g><g><path d="m459.951 300.536c-17.792-24.502-48.953-34.645-81.917-30.058 21.12 3.149 39.681 13.207 51.917 30.058 28.749 39.592 11.708 101.666-38.063 138.645-18.969 14.094-39.953 22.502-60.254 25.327 28.502 4.25 61.667-4.087 90.254-25.327 49.77-36.98 66.811-99.053 38.063-138.645z" fill="#d82f3c"/></g></g><g><g><ellipse cx="369.834" cy="367.493" fill="#df646e" rx="58.282" ry="40.957" transform="matrix(.796 -.605 .605 .796 -146.967 298.606)"/></g></g><g><g><ellipse cx="318.693" cy="110.287" fill="#df646e" rx="112.744" ry="88.215" transform="matrix(.335 -.942 .942 .335 107.911 373.535)"/></g></g><g><g><path d="m357.945 4.603c-13.043-4.973-26.82-5.785-40.351-3.051 3.488.743 6.945 1.752 10.351 3.051 45.528 17.357 64.862 78.745 43.184 137.112-15.468 41.646-47.636 70.495-81.336 77.306 43.145 9.186 91.28-23.305 111.336-77.306 21.678-58.367 2.344-119.754-43.184-137.112z" fill="#d82f3c"/></g></g><g><g><ellipse cx="318.693" cy="110.287" fill="#e6989e" rx="58.524" ry="40.788" transform="matrix(.341 -.94 .94 .341 106.475 372.378)"/></g></g><g><g><path d="m339.069 55.426c-8.306-3.167-17.409-2.259-26.082 1.846 18.077 10.202 24.346 39.209 13.821 67.546-6.813 18.344-19.102 32.186-32.409 38.483 1.251.706 2.556 1.326 3.918 1.846 21.051 8.025 47.238-10.03 58.491-40.329 11.253-30.298 3.311-61.366-17.739-69.392z" fill="#e27f86"/></g></g><g><g><ellipse cx="345.534" cy="253.567" fill="#dc4955" rx="128.603" ry="100.549" transform="matrix(.233 -.973 .973 .233 18.456 530.533)"/></g></g><g><g><path d="m376.989 128.876c-11.707-3.049-23.6-3.321-35.221-1.172 1.743.331 3.484.72 5.221 1.172 53.744 13.996 83.228 81.167 65.856 150.032-13.588 53.864-51.818 92.807-93.546 100.522 52.207 9.921 106.735-33.882 123.546-100.522 17.372-68.864-12.112-136.036-65.856-150.032z" fill="#d82f3c"/></g></g><g><g><ellipse cx="345.534" cy="253.567" fill="#e27f86" rx="76.128" ry="53.018" transform="matrix(.238 -.971 .971 .238 17.124 528.952)"/></g></g><g><g><path d="m364.154 179.754c-8.211-2.138-16.669-1.368-24.795 1.773 24.882 10.549 37.118 47.213 27.484 85.402-7.304 28.954-25.217 50.98-45.135 58.679 1.679.712 3.414 1.306 5.205 1.773 28.338 7.38 59.646-19.686 69.931-60.452 10.283-40.766-4.352-79.796-32.69-87.175z" fill="#df646e"/></g></g><g><g><ellipse cx="146.464" cy="254.081" fill="#df646e" rx="98.194" ry="127.793" transform="matrix(.748 -.664 .664 .748 -131.72 161.225)"/></g></g><g><g><path d="m217.359 186.095c-33.266-35.81-77.395-52.312-114.392-46.601 29.218 4.181 59.778 20.106 84.392 46.601 48.027 51.699 55.221 124.048 16.067 161.595-12.034 11.54-27.048 18.442-43.464 20.976 27.795 3.978 54.376-2.671 73.464-20.976 39.153-37.547 31.96-109.896-16.067-161.595z" fill="#dc4955"/></g></g><g><g><ellipse cx="146.464" cy="254.081" fill="#ebb3b8" rx="51.779" ry="75.644" transform="matrix(.742 -.67 .67 .742 -132.535 163.703)"/></g></g><g><g><path d="m183.845 218.234c-22.798-24.541-52.888-35.019-74.564-28.006 15.249 4.018 31.167 13.584 44.564 28.006 28.431 30.605 34.743 71.464 14.098 91.262-4.09 3.922-8.94 6.706-14.295 8.438 17.111 4.508 33.379 2.03 44.295-8.438 20.645-19.799 14.333-60.658-14.098-91.262z" fill="#e6989e"/></g></g></g></svg>