<svg id="Layer_1" height="512" viewBox="0 0 512 512" width="512" xmlns="http://www.w3.org/2000/svg" data-name="Layer 1"><g id="_Path_" data-name=" Path "><path d="m350.96 64h-297.28a29.472 29.472 0 0 0 -29.68 29.7v377.3a29.727 29.727 0 0 0 29.68 30h297.28a30.032 30.032 0 0 0 30.04-30v-377.3a29.778 29.778 0 0 0 -30.04-29.7z" fill="#cae6ee"/></g><path d="m479.2 255.47a31.158 31.158 0 0 0 -44.03-.02l-20.44 20.41.04.04 44 44 .04.04 20.41-20.45a31.143 31.143 0 0 0 -.02-44.02z" fill="#6994ff"/><path d="m458.77 319.9-21.84-21.84-120.2 120.19 21.97 21.97.01.04.02-.01 120.08-120.31z" fill="#e87187"/><path d="m414.77 275.9-.04-.04-120.31 120.08-.01.03.06.02 22.26 22.26 120.2-120.19z" fill="#f79caf"/><path d="m83.48 383.13h64.53v64.54h-64.53z" fill="#b0c6cc"/><path d="m54 471v-377.3a29.472 29.472 0 0 1 29.68-29.7h-30a29.472 29.472 0 0 0 -29.68 29.7v377.3a29.727 29.727 0 0 0 29.68 30h30a29.727 29.727 0 0 1 -29.68-30z" fill="#9ab1b7"/><path d="m326.07 20.18a30.758 30.758 0 0 0 -21.95-9.18 31.155 31.155 0 0 0 -31.12 31.33v47.67h62v-47.67a31.016 31.016 0 0 0 -8.93-22.15z" fill="#a9b6d8"/><path d="m99.84 11a30.828 30.828 0 0 0 -30.84 30.77v48.23h62v-48.23a31.106 31.106 0 0 0 -31.16-30.77z" fill="#a9b6d8"/><path d="m148.011 339.067h-64.533a6 6 0 0 1 -6-6v-64.533a6 6 0 0 1 6-6h53.266a6 6 0 1 1 0 12h-47.266v52.533h52.533v-4.623a6 6 0 0 1 12 0v10.623a6 6 0 0 1 -6 6z" fill="#b0c6cc"/><path d="m125.44 314.574a5.986 5.986 0 0 1 -4.243-1.757l-12.071-12.071a6 6 0 1 1 8.484-8.486l8.186 8.185 23.955-20.083a6 6 0 0 1 7.709 9.2l-28.166 23.614a5.984 5.984 0 0 1 -3.854 1.398z" fill="#4ca987"/><g fill="#889ca0"><path d="m274.98 292.262h-89.439a6 6 0 0 1 0-12h89.439a6 6 0 0 1 0 12z"/><path d="m321.163 321.339h-135.622a6 6 0 0 1 0-12h135.622a6 6 0 0 1 0 12z"/><path d="m274.98 406.862h-89.439a6 6 0 0 1 0-12h89.439a6 6 0 0 1 0 12z"/><path d="m281.57 435.939h-96.029a6 6 0 0 1 0-12h96.029a6 6 0 0 1 0 12z"/></g><path d="m148.011 225.946h-64.533a6 6 0 0 1 -6-6v-64.534a6 6 0 0 1 6-6h53.266a6 6 0 0 1 0 12h-47.266v52.534h52.533v-4.624a6 6 0 0 1 12 0v10.624a6 6 0 0 1 -6 6z" fill="#b0c6cc"/><path d="m125.44 201.453a5.987 5.987 0 0 1 -4.24-1.753l-12.071-12.071a6 6 0 0 1 8.484-8.485l8.186 8.185 23.955-20.083a6 6 0 0 1 7.709 9.2l-28.166 23.614a5.984 5.984 0 0 1 -3.857 1.393z" fill="#4ca987"/><path d="m274.98 179.14h-89.439a6 6 0 0 1 0-12h89.439a6 6 0 0 1 0 12z" fill="#889ca0"/><path d="m321.163 208.218h-135.622a6 6 0 0 1 0-12h135.622a6 6 0 0 1 0 12z" fill="#889ca0"/><path d="m51 112a6 6 0 0 1 -6-6v-2a6 6 0 0 1 12 0v2a6 6 0 0 1 -6 6z" fill="#f4f8fc"/><path d="m51 224a6 6 0 0 1 -6-6v-92a6 6 0 0 1 12 0v92a6 6 0 0 1 -6 6z" fill="#f4f8fc"/><path d="m338.7 440.22-44.23-44.23-.06-.02-12.63 34.65 22.27 22.27 34.66-12.63z" fill="#c79a83"/><path d="m304.05 452.89-35.03 12.76 12.76-35.03z" fill="#6d7486"/></svg>