<svg id="Capa_1" enable-background="new 0 0 512 512" height="512" viewBox="0 0 512 512" width="512" xmlns="http://www.w3.org/2000/svg"><g><g><path d="m433.661 105.914c.749-3.638 1.144-7.406 1.144-11.266 0-30.704-24.891-55.595-55.595-55.595-8.719 0-16.967 2.012-24.312 5.589-26.427-23.123-61.023-37.142-98.898-37.142-61.622 0-114.571 37.101-137.752 90.179-57.617.55-104.16 47.407-104.16 105.153 0 58.089 47.09 105.179 105.179 105.179h273.466c58.089 0 105.179-47.09 105.179-105.179 0-43.571-26.494-80.954-64.251-96.918z" fill="#e6f7fe"/></g><g><path d="m379.672 223.957h-85.53c-7.465 0-14.198 3.12-18.98 8.121l-79.337-102.005c-4.976-6.398-12.627-10.14-20.732-10.14s-15.756 3.742-20.732 10.14l-80.907 104.024c-6.158 7.918-7.269 18.652-2.861 27.664 4.407 9.011 13.562 14.725 23.593 14.725h11.878v30.703c4.325.542 8.731.823 13.203.823h273.466c4.472 0 8.878-.281 13.203-.823v-56.967c0-14.506-11.759-26.265-26.264-26.265z" fill="#d3effd"/></g><g><g><path d="m175.093 146.198-80.907 104.023h38.142v150.256h85.53v-150.256h38.142z" fill="#e4936b"/></g><g><path d="m214.506 196.871c-3.485 18.78-8.941 38.926-16.395 59.486-17.613 48.582-42.298 88.274-65.783 109.485v34.635h85.53v-150.256h38.142z" fill="#e27d47"/></g><g><path d="m336.907 504.5 80.907-104.023s-19.133 0-38.142 0v-150.256h-85.53v150.256h-38.142z" fill="#b3e59f"/></g><g><path d="m379.672 400.477v-150.256h-19.638c-.252 29.146-7.218 65.764-21.004 103.791-13.322 36.747-30.691 68.402-48.526 90.827l46.403 59.661 80.907-104.023s-19.133 0-38.142 0z" fill="#95d6a4"/></g></g><path d="m379.67 337.72c4.143 0 7.5-3.358 7.5-7.5v-14.71h5.561c62.132 0 112.68-50.548 112.68-112.68 0-43.419-24.724-82.599-63.471-101.397.24-2.244.36-4.51.36-6.783 0-34.793-28.302-63.1-63.09-63.1-7.977 0-15.701 1.458-23.029 4.342-28.184-23.18-63.57-35.892-100.181-35.892-37.426 0-73.707 13.339-102.161 37.559-3.154 2.685-3.535 7.418-.85 10.572s7.418 3.534 10.572.85c25.744-21.913 58.573-33.981 92.439-33.981 34.58 0 67.95 12.531 93.963 35.285 2.267 1.984 5.505 2.417 8.218 1.1 6.596-3.208 13.671-4.835 21.029-4.835 26.517 0 48.09 21.578 48.09 48.1 0 3.303-.331 6.581-.984 9.743-.724 3.504 1.128 7.031 4.423 8.425 36.249 15.331 59.672 50.663 59.672 90.012 0 53.861-43.819 97.68-97.68 97.68h-5.561v-50.29c0-4.142-3.357-7.5-7.5-7.5h-85.53c-4.143 0-7.5 3.358-7.5 7.5v50.29h-61.28v-42.79h30.64c2.864 0 5.479-1.632 6.737-4.205s.941-5.639-.817-7.9l-80.91-104.02c-1.421-1.827-3.606-2.895-5.92-2.895s-4.5 1.069-5.92 2.896l-80.9 104.02c-1.758 2.261-2.076 5.327-.817 7.9 1.258 2.573 3.873 4.205 6.737 4.205h30.64v42.79h-5.56c-53.861 0-97.68-43.819-97.68-97.68 0-25.921 10.05-50.334 28.299-68.741 18.237-18.395 42.54-28.662 68.433-28.909 2.956-.028 5.619-1.79 6.802-4.499 4.219-9.663 9.537-18.879 15.806-27.395 2.456-3.336 1.743-8.031-1.593-10.486-3.335-2.456-8.03-1.744-10.486 1.593-5.983 8.126-11.183 16.832-15.494 25.935-28.055 1.445-54.22 13.127-74.121 33.201-21.052 21.234-32.646 49.397-32.646 79.3 0 62.132 50.548 112.68 112.68 112.68h5.56v12.99c0 4.142 3.358 7.5 7.5 7.5s7.5-3.358 7.5-7.5v-78.28c0-4.142-3.358-7.5-7.5-7.5h-22.806l65.566-84.304 65.574 84.304h-22.804c-4.142 0-7.5 3.358-7.5 7.5v142.76h-70.53v-29.48c0-4.142-3.358-7.5-7.5-7.5s-7.5 3.358-7.5 7.5v36.98c0 4.142 3.358 7.5 7.5 7.5h85.53c4.142 0 7.5-3.358 7.5-7.5v-84.97h61.28v77.47h-30.64c-2.865 0-5.479 1.632-6.737 4.205-1.259 2.573-.941 5.639.817 7.9l80.91 104.02c1.421 1.827 3.605 2.895 5.92 2.895s4.499-1.069 5.92-2.896l80.899-104.02c1.759-2.261 2.076-5.327.817-7.9s-3.873-4.205-6.737-4.205h-30.64v-27.76c0-4.142-3.357-7.5-7.5-7.5s-7.5 3.358-7.5 7.5v35.26c0 4.142 3.357 7.5 7.5 7.5h22.806l-65.565 84.304-65.574-84.304h22.804c4.143 0 7.5-3.358 7.5-7.5v-142.759h70.53v72.5c0 4.142 3.357 7.5 7.5 7.5z"/></g></svg>